<?xml version="1.0" encoding="utf-8"?>
<!-- Generator: Adobe Illustrator 16.0.0, SVG Export Plug-In . SVG Version: 6.00 Build 0)  -->
<!DOCTYPE svg PUBLIC "-//W3C//DTD SVG 1.1//EN" "http://www.w3.org/Graphics/SVG/1.1/DTD/svg11.dtd">
<svg version="1.1" id="Capa_1" xmlns="http://www.w3.org/2000/svg" xmlns:xlink="http://www.w3.org/1999/xlink" x="0px" y="0px"
	 width="257.556px" height="257.492px" viewBox="0 0 257.556 257.492" enable-background="new 0 0 257.556 257.492"
	 xml:space="preserve">
<g>
	<path fill="#ff9928" d="M28.386,189.338c-32.587-12.023-34.062-57.028-2.914-72.358
		c-0.695-1.088-1.404-2.151-2.066-3.243c-10.308-17.021-2.913-38.74,15.63-45.91c1.33-0.514,3.236-0.65,3.84-1.612
		c0.586-0.932-0.174-2.701-0.324-4.104c-1.69-15.803,6.739-28.938,21.87-34.005c1.083-0.363,1.534-0.854,1.761-2.02
		C68.276,15.312,74.159,7.557,84.83,4.249c14.016-4.345,32.63,2.576,35.513,21.884c0.257,1.721,0.444,3.471,0.451,5.208
		c0.041,10.862,0.022,21.724,0.017,32.586c0,0.55-0.06,1.101-0.104,1.869c-4.181,0-8.283,0.05-12.379-0.066
		c-0.493-0.014-1.088-0.862-1.419-1.446c-5.157-9.087-16.457-13.017-25.665-8.472c-13.63,6.726-15.394,23.66-4.287,33.066
		c9.057,7.671,23.543,5.304,29.558-5.239c0.904-1.585,1.849-2.129,3.631-2.048c3.473,0.156,6.957,0.046,10.552,0.046
		c0,15.764,0,31.329,0,47.097c-1.155,0-2.2,0-3.244,0c-6.305,0-12.61-0.004-18.915,0c-14.406,0.011-24.805,10.123-24.825,24.521
		c-0.004,3.216-0.904,4.973-3.604,6.812c-7.092,4.827-9.441,12.063-7.72,20.199c1.638,7.74,6.796,12.889,14.503,14.829
		c10.634,2.676,19.322-3.214,23.101-12.007c3.734-8.688-0.201-19.444-8.638-24.25c-1.406-0.801-1.984-1.632-1.823-3.2
		c0.171-1.671-0.022-3.395,0.274-5.035c0.644-3.552,3.123-5.847,6.946-5.933c7.913-0.177,15.833-0.053,23.946-0.053
		c0.042,0.732,0.111,1.392,0.111,2.049c0.005,26.468,0.008,52.937,0.001,79.405c-0.001,6.13-1.479,11.857-4.917,16.988
		c-4.256,6.353-10.463,9.704-17.801,10.954c-9.452,1.609-17.831-0.794-24.677-7.649c-3.704-3.707-5.855-8.331-6.979-13.436
		c-0.186-0.843-0.345-1.694-0.56-2.753c-11.963,2.183-22.542-0.48-30.839-9.563C26.795,211.588,24.723,201,28.386,189.338z"/>
	<path fill="#ff9928" d="M232.049,116.917c30.325,14.391,30.623,59.143-2.874,72.362
		c3.666,11.701,1.605,22.351-6.713,31.401c-8.279,9.01-18.802,11.67-30.635,9.511c-0.618,2.234-1.05,4.376-1.797,6.402
		c-3.925,10.631-11.604,16.51-22.848,17.693c-8.11,0.853-15.325-1.446-21.514-6.685c-4.821-4.08-7.326-9.549-8.372-15.673
		c-0.406-2.382-0.509-4.837-0.523-7.262c-0.054-10.173-0.023-20.349-0.023-30.523c0-0.729,0-1.458,0-2.381c0.908,0,1.578,0,2.249,0
		c8.053,0,16.105,0.061,24.157-0.046c1.775-0.025,2.728,0.46,3.626,2.051c5.185,9.18,17.476,12.735,26.467,7.333
		c8.286-4.979,11.138-11.713,10.152-19.712c-1.03-8.373-7.338-15.048-15.398-16.847c-8.281-1.848-17.279,2.135-21.356,9.589
		c-0.766,1.4-1.592,1.86-3.176,1.842c-8.113-0.092-16.229-0.042-24.343-0.042c-0.679,0-1.359,0-2.207,0c0-31.41,0-62.705,0-94.294
		c0.554,0,1.148,0,1.742,0c6.867,0,13.733-0.012,20.6,0.004c5.792,0.012,8.58,2.812,8.77,8.583c0.09,2.726,0.03,4.842-2.997,6.536
		c-9.35,5.231-13.306,21.712-1.433,31.542c7.116,5.892,17.771,6.027,24.744-0.056c9.381-8.187,9.898-21.399,1.101-29.643
		c-1.216-1.139-2.645-2.1-4.104-2.912c-1.089-0.607-1.459-1.299-1.417-2.506c0.154-4.335-0.252-8.604-1.954-12.654
		c-4.084-9.723-11.777-14.239-21.962-14.669c-6.979-0.295-13.98-0.058-20.971-0.058c-0.675,0-1.35,0-2.067,0
		c-0.091-0.381-0.193-0.612-0.192-0.842c0.014-11.922-0.418-23.865,0.16-35.76c1.008-20.764,19.018-28.305,32.788-25.662
		c11.503,2.208,19.342,10.35,21.63,22.446c0.232,1.229,0.708,1.761,1.86,2.146c16.016,5.334,24.616,20.243,21.307,36.833
		c-0.083,0.417-0.102,0.846-0.167,1.396c10.826,3.259,18.975,9.688,22.704,20.498C240.771,97.603,238.873,107.759,232.049,116.917z"
		/>
	<path fill="#ff9928" d="M97.167,73.707c0.022,4.533-3.265,7.845-7.756,7.815
		c-4.431-0.029-7.639-3.249-7.678-7.706c-0.04-4.589,3.129-7.856,7.661-7.899C93.896,65.875,97.145,69.13,97.167,73.707z"/>
	<path fill="#ff9928" d="M183.696,113.09c-0.007,4.53-3.325,7.829-7.808,7.761
		c-4.444-0.068-7.613-3.291-7.627-7.755c-0.012-4.577,3.202-7.847,7.715-7.85C180.486,105.242,183.702,108.511,183.696,113.09z"/>
	<path fill="#ff9928" d="M89.301,176.06c-0.027,4.529-3.37,7.815-7.847,7.719
		c-4.452-0.096-7.594-3.324-7.586-7.793c0.008-4.572,3.249-7.835,7.752-7.809C86.139,168.204,89.329,171.478,89.301,176.06z"/>
	<path fill="#ff9928" d="M191.562,183.818c0.031,4.532-3.245,7.85-7.737,7.833
		c-4.43-0.016-7.648-3.233-7.694-7.689c-0.047-4.588,3.113-7.861,7.643-7.916C188.273,175.99,191.53,179.242,191.562,183.818z"/>
</g>
</svg>
